<svg id="Layer_1" data-name="Layer 1" xmlns="http://www.w3.org/2000/svg" viewBox="0 0 133.49 99.31"><defs><style>.cls-1{fill:#24928f;}</style></defs><title>simpel logo new2</title><path class="cls-1" d="M375.51,313.07c3.46-1.8,6.79-4,10.4-5.35,24.75-9.54,40.57-27.34,50.08-51.83a112.93,112.93,0,0,1,14.49-26c12-16.18,31-15.11,46-11.15,2.54.67,11.69,5.91,12,8.84,2.09,23.56-2.53,46.39-1,70,.39,5.91-3,7.43-8.37,6.47-16.45-3-32.75-6.3-49.71-2.35-18.61,4.33-37.48,7.57-56.26,11.18-5.59,1.07-11.25,1.8-16.87,2.69Z" transform="translate(-375.51 -216.21)"/></svg>