<svg id="Layer_1" data-name="Layer 1" xmlns="http://www.w3.org/2000/svg" viewBox="0 0 146.41 187.68"><defs><style>.cls-1{fill:#44adad;}</style></defs><title>simpel logo new</title><path class="cls-1" d="M154.41,200.46c-2.4,1.84-3.31,2.85-4.44,3.32a29.47,29.47,0,0,1-5.87,1.79c-36.55,6.9-54.86,31.51-65.23,65.1-3.67,11.9-10.16,23.31-17.18,33.7-7.25,10.73-26.4,13.33-37.47,7-6.29-3.62-12-21-10.55-29.69a22.93,22.93,0,0,0-1.22-12.08c-2.82-6.71-2-13,.41-19.25s2.72-11.51-1.37-17.82a20.8,20.8,0,0,1,11-31.35c6.57-2.23,5.62-5,2.73-9.34A77.06,77.06,0,0,1,12.7,140.45c.77-7.69,5.24-12,12.57-13.16,4.63-.76,8.41.51,9.73,5.26,5.43,19.62,19.89,30.64,35.73,42,22.57,16.19,47.23,22.65,74.08,24C147.54,198.73,150.24,199.62,154.41,200.46Z" transform="translate(-8 -127.09)"/></svg>